<svg width="80" height="80" viewBox="0 0 80 80" fill="none" xmlns="http://www.w3.org/2000/svg">
<path d="M41.3268 0.221234C40.4664 -0.0737465 39.5333 -0.0737445 38.6729 0.221239L7.7907 10.8092C6.12202 11.3813 5 12.9597 5 14.7351V47.5913C5 58.8989 26.2096 72.523 37.9564 79.4412C39.2215 80.1863 40.7782 80.1863 42.0433 79.4412C53.7901 72.523 75 58.8989 75 47.5913V14.7351C75 12.9597 73.878 11.3813 72.2093 10.8092L41.3268 0.221234Z" fill="#EBEDFE"/>
<path d="M11 44.6301H19.2801C20.3847 44.6301 21.2801 45.5256 21.2801 46.6301L21.2801 61.1821M24.5 59H28C29.0854 59 34.7825 63.5199 40.6463 63.5199C46.51 63.5199 48.0455 62.0903 48.0455 62.0903L58.6347 55.4721C59.1077 55.1758 59.4503 54.7107 59.5929 54.1711C59.7355 53.6315 59.6674 53.0579 59.4024 52.5666C59.1371 52.0665 58.6879 51.689 58.1495 51.5137C57.6112 51.3384 57.0259 51.3789 56.5169 51.6268C53.4129 53.116 47.4895 55.9684 46.4968 56.4118C45.1401 57.0207 41.5463 56.9545 39.3028 56.7494C37.544 56.5277 35.8079 56.1534 34.114 55.6309M24.5 49L29.5 48.5C30.8912 48.4101 32.319 48.8629 33.5134 49.5819L37.8949 52.2238C38.5183 52.5997 39.2324 52.7984 39.9603 52.7984H44.5725C45.3025 52.8797 45.9709 53.246 46.4322 53.8176C46.4322 53.8176 47.2625 55.2832 47.0591 56.0151M16.9998 49H15.9998" stroke="#3E47DD" stroke-width="2" stroke-miterlimit="10" stroke-linecap="round" stroke-linejoin="round"/>
<path d="M37.9229 43H43.3657C49.8779 43 55.1536 36.739 55.1536 29.0092C55.1536 21.2793 49.8779 15 43.3657 15H37.9229M37.9229 43C45.0601 43 50.8461 36.732 50.8461 29C50.8461 21.268 45.0601 15 37.9229 15M37.9229 43C30.7856 43 25 36.732 25 29C25 21.268 30.7856 15 37.9229 15M31.6762 31.1538C32.4312 34.8697 35.0942 37.6154 38.2635 37.6154C39.7442 37.6154 41.1144 37.0161 42.2311 35.9985M31.6762 31.1538C31.5363 30.4654 31.4619 29.7437 31.4619 29C31.4619 28.2563 31.5363 27.5346 31.6762 26.8462M31.6762 31.1538H38.5283M31.6762 31.1538H28.7961M31.6762 26.8462C32.4312 23.1303 35.0942 20.3846 38.2635 20.3846C39.2669 20.3846 40.2196 20.6599 41.077 21.1539C41.4079 21.3446 41.7246 21.5679 42.0246 21.8205M31.6762 26.8462H38.5015M31.6762 26.8462L28.7692 26.8462" stroke="#3E47DD" stroke-width="2" stroke-linecap="round" stroke-linejoin="round"/>
</svg>
