<svg width="80" height="80" viewBox="0 0 80 80" fill="none" xmlns="http://www.w3.org/2000/svg">
<path d="M41.3268 0.221234C40.4664 -0.0737465 39.5333 -0.0737445 38.6729 0.221239L7.7907 10.8092C6.12202 11.3813 5 12.9597 5 14.7351V47.5913C5 58.8989 26.2096 72.523 37.9564 79.4412C39.2215 80.1863 40.7782 80.1863 42.0433 79.4412C53.7901 72.523 75 58.8989 75 47.5913V14.7351C75 12.9597 73.878 11.3813 72.2093 10.8092L41.3268 0.221234Z" fill="#EBEDFE"/>
<path d="M25 53.2949V58.0002C25 58.5525 25.4478 59.0002 26.0001 59.0002L29.0147 59.0002C29.567 59.0002 30.0147 58.5524 30.0147 58.0002V56.0001M53.9999 53.2774V58.0001C53.9999 58.5523 53.5522 59.0001 52.9999 59.0001L50.2658 59C49.7135 59 49.2658 58.5523 49.2658 58V56.8439M27.5146 48.0001L31.0146 48.5001M51.5146 48.0001L48.0146 48.5001M28.0145 43.0001C28.0145 43.0001 31.171 44.0001 35.0406 44.0001H44.4742C48.3375 44.0001 51.5145 43.0001 51.5145 43.0001M53.844 45.7931L51.5492 42.3874L48.5829 37.0163C48.2305 36.3782 47.5589 35.9824 46.8299 35.9832L32.6647 35.9987C31.9366 35.9995 31.2665 36.3959 30.9152 37.0336L28.0082 42.3095C27.9796 42.3613 27.9465 42.4105 27.9093 42.4565L25.2231 45.7711C25.0788 45.9492 25 46.1715 25 46.4007V54C25 55.1046 25.8954 56 27 56H52.0146C53.1192 56 54.0146 55.1046 54.0146 54V46.3519C54.0146 46.1528 53.9552 45.9582 53.844 45.7931ZM34.0148 49.0001H45.0554L44.2094 52.2519C44.0948 52.6925 43.697 53.0001 43.2416 53.0001H35.8164C35.3598 53.0001 34.9612 52.6908 34.8478 52.2485L34.0148 49.0001Z" stroke="#3E47DD" stroke-width="2" stroke-miterlimit="10" stroke-linecap="round" stroke-linejoin="round"/>
<path d="M23.5 15L21 19.2353H24.931L22.2122 24" stroke="#3E47DD" stroke-width="2" stroke-miterlimit="10" stroke-linecap="round" stroke-linejoin="round"/>
<path d="M40.5 9L38 13.2353H41.931L39.2122 18" stroke="#3E47DD" stroke-width="2" stroke-miterlimit="10" stroke-linecap="round" stroke-linejoin="round"/>
<path d="M58 57C63.5237 55.7167 67 52 67 50.182C67 43.366 64 35.5 58 30.5M21 56.752C16.06 55.4446 13 52 13 50.182C13 35.7221 25.0883 24 40 24C43.3434 24 46.5449 24.5893 49.5 25.6666M19.5 41C21.6507 35.9716 25.4219 31.9048 30.8164 29.7053M33.8951 28.6883C34.5839 28.5114 35.2861 28.3634 36 28.2458M53.1586 30L58 21.5294H51L55 14" stroke="#3E47DD" stroke-width="2" stroke-miterlimit="10" stroke-linecap="round" stroke-linejoin="round"/>
</svg>
