<svg width="80" height="80" viewBox="0 0 80 80" fill="none" xmlns="http://www.w3.org/2000/svg">
<path d="M41.3268 0.221234C40.4664 -0.0737465 39.5333 -0.0737445 38.6729 0.221239L7.7907 10.8092C6.12202 11.3813 5 12.9597 5 14.7351V47.5913C5 58.8989 26.2096 72.523 37.9564 79.4412C39.2215 80.1863 40.7782 80.1863 42.0433 79.4412C53.7901 72.523 75 58.8989 75 47.5913V14.7351C75 12.9597 73.878 11.3813 72.2093 10.8092L41.3268 0.221234Z" fill="#EBEDFE"/>
<path d="M47.8448 52.046L50.5152 54.8929L55.7734 49.6072M51.8091 43C56.9178 43 61.0591 47.1414 61.0591 52.25C61.0591 57.3587 56.9178 61.5001 51.8091 61.5001C46.7005 61.5001 42.5591 57.3587 42.5591 52.25C42.5591 47.1414 46.7005 43 51.8091 43Z" stroke="#3E47DD" stroke-width="2" stroke-linecap="round" stroke-linejoin="round"/>
<path d="M57 29V28.7517C57 27.6351 56.5333 26.5693 55.7126 25.8121L49.4796 20.0603C48.798 19.4314 47.9211 19.0605 47 19.0068M57 29V40M57 29H49C47.8954 29 47 28.1046 47 27V19.0068M41 59H28C25.7909 59 24 57.2091 24 55V41.5M24 23.5V23C24 20.7909 25.7909 19 28 19H46.7669C46.8449 19 46.9226 19.0023 47 19.0068M47 19.0068V19M27.0002 43H39.0002M27.0002 48H35.0002M27.0002 53H35.0002" stroke="#3E47DD" stroke-width="2" stroke-miterlimit="10" stroke-linecap="round" stroke-linejoin="round"/>
<path d="M19 27L19 38M14 38H40C41.1046 38 42 37.1046 42 36V29C42 27.8954 41.1046 27 40 27H14C12.8954 27 12 27.8954 12 29V36C12 37.1046 12.8954 38 14 38Z" stroke="#3E47DD" stroke-width="2" stroke-miterlimit="10" stroke-linecap="round" stroke-linejoin="round"/>
</svg>
