<svg width="80" height="80" viewBox="0 0 80 80" fill="none" xmlns="http://www.w3.org/2000/svg">
<path d="M41.3268 0.221234C40.4664 -0.0737465 39.5333 -0.0737445 38.6729 0.221239L7.7907 10.8092C6.12202 11.3813 5 12.9597 5 14.7351V47.5913C5 58.8989 26.2096 72.523 37.9564 79.4412C39.2215 80.1863 40.7782 80.1863 42.0433 79.4412C53.7901 72.523 75 58.8989 75 47.5913V14.7351C75 12.9597 73.878 11.3813 72.2093 10.8092L41.3268 0.221234Z" fill="#EBEDFE"/>
<path d="M60.0003 49.5L65.0003 48V42L29.0002 42C27.8956 42 27.0002 41.1046 27.0002 40V28H19.8114C18.6976 28 17.6754 28.6171 17.1567 29.6028L13.4605 36.6254C13.1582 37.1998 13.0002 37.8392 13.0002 38.4884V48C13.0002 49.1046 13.8956 50 15.0002 50H18.8269M28.5004 50H50.0004M13 44H15.5M13.5 37.5L22.156 36.1333C22.6421 36.0565 23 35.6376 23 35.1455V31M29.9999 37.9999H65.9999M28.5469 47.9467C28.5469 50.6786 26.3322 52.8933 23.6002 52.8933C20.8682 52.8933 18.6535 50.6786 18.6535 47.9467C18.6535 45.2147 20.8682 43 23.6002 43C26.3322 43 28.5469 45.2147 28.5469 47.9467ZM59.8935 48C59.8935 50.732 57.6788 52.9467 54.9469 52.9467C52.2149 52.9467 50.0002 50.732 50.0002 48C50.0002 45.268 52.2149 43.0533 54.9469 43.0533C57.6788 43.0533 59.8935 45.268 59.8935 48Z" stroke="#3E47DD" stroke-width="2" stroke-linecap="round" stroke-linejoin="round"/>
<path d="M34 33L32.1592 32.5705C31.4803 32.4121 31 31.8068 31 31.1097V28.0616C31 27.1438 31.6246 26.3439 32.5149 26.1213L40.6316 24.0921C40.875 24.0312 41.1048 23.9251 41.309 23.7793L47.4785 19.3725C47.8177 19.1302 48.2241 19 48.6409 19H57.3696C57.7799 19 58.1803 19.1262 58.5165 19.3615L62.7362 22.3153C62.9109 22.4377 63.1041 22.5312 63.3084 22.5925L66.4656 23.5397C67.3624 23.8087 67.9526 24.6639 67.8859 25.5978L67.5952 29.6676C67.5376 30.4742 66.9999 31.1667 66.2327 31.4224L63 32.5M55 33H41M54.8462 19L57.443 21.6792C58.0446 22.3 57.6283 23.3401 56.7645 23.3744L41 24M41 31.5C41 33.433 39.433 35 37.5 35C35.567 35 34 33.433 34 31.5C34 29.567 35.567 28 37.5 28C39.433 28 41 29.567 41 31.5ZM63 31.5C63 33.433 61.433 35 59.5 35C57.567 35 56 33.433 56 31.5C56 29.567 57.567 28 59.5 28C61.433 28 63 29.567 63 31.5Z" stroke="#3E47DD" stroke-width="2" stroke-linecap="round" stroke-linejoin="round"/>
<path d="M30 59H42M47.5 59H49.5" stroke="#3E47DD" stroke-width="2" stroke-linecap="round" stroke-linejoin="round"/>
</svg>
