<svg width="80" height="80" viewBox="0 0 80 80" fill="none" xmlns="http://www.w3.org/2000/svg">
	<path d="M41.3268 0.221234C40.4664 -0.0737465 39.5333 -0.0737445 38.6729 0.221239L7.7907 10.8092C6.12202 11.3813 5 12.9597 5 14.7351V47.5913C5 58.8989 26.2096 72.523 37.9564 79.4412C39.2215 80.1863 40.7782 80.1863 42.0433 79.4412C53.7901 72.523 75 58.8989 75 47.5913V14.7351C75 12.9597 73.878 11.3813 72.2093 10.8092L41.3268 0.221234Z" fill="#EBEDFE"/>
	<path d="M23 54.5L20.2002 60.6167L26.1398 59.3476L29 65.5L33 57M56.2002 54.5L59 60.6167L53.0604 59.3476L50.2002 65.5L46.2002 57M33.3047 15.4056L27.9399 15.3954C27.0706 15.3938 26.2998 15.9538 26.0328 16.781L24.3847 21.8864C24.2541 22.2908 23.9981 22.6431 23.6539 22.8923L19.3076 26.0374C18.6034 26.547 18.309 27.4531 18.5792 28.2793L20.2467 33.3784C20.3788 33.7823 20.3788 34.2178 20.2467 34.6217L18.5792 39.7208C18.309 40.547 18.6034 41.4531 19.3076 41.9627L23.6539 45.1078C23.9981 45.3569 24.2541 45.7092 24.3847 46.1136L26.0328 51.2191C26.2998 52.0463 27.0706 52.6063 27.9399 52.6046L33.3047 52.5944C33.7296 52.5936 34.1438 52.7282 34.4871 52.9786L38.8214 56.1403C39.5236 56.6525 40.4764 56.6525 41.1787 56.1403L45.5129 52.9786C45.8562 52.7282 46.2704 52.5936 46.6954 52.5944L52.0602 52.6046C52.9294 52.6063 53.7002 52.0463 53.9673 51.2191L55.6154 46.1136C55.7459 45.7092 56.0019 45.3569 56.3462 45.1078L60.6924 41.9627C61.3966 41.4531 61.691 40.547 61.4208 39.7208L59.7533 34.6217C59.6212 34.2178 59.6212 33.7823 59.7533 33.3784L61.4208 28.2793C61.691 27.4531 61.3966 26.547 60.6924 26.0374L56.3462 22.8923C56.0019 22.6431 55.7459 22.2908 55.6154 21.8864L53.9673 16.781C53.7002 15.9538 52.9294 15.3938 52.0602 15.3954L46.6954 15.4056C46.2704 15.4064 45.8562 15.2719 45.5129 15.0214L41.1787 11.8598C40.4764 11.3475 39.5236 11.3475 38.8214 11.8598L34.4871 15.0214C34.1438 15.2719 33.7296 15.4064 33.3047 15.4056Z" stroke="#3E47DD" stroke-width="2" stroke-linecap="round" stroke-linejoin="round"/>
	<path d="M42.6317 31.7044L32.1421 39.8452C30.661 40.9531 30.6125 43.2011 32.0443 44.3752C33.151 45.2826 34.7463 45.1923 35.7488 44.1654L45.5941 34.3612M41.5002 42L43.3879 44.1555C44.3616 45.1946 45.9111 45.286 46.9861 44.3677C48.3767 43.1798 48.3296 40.9052 46.891 39.7841L45.0002 38.5M34.0002 34.5L32.2674 32.4406L33.5337 31.2443M37.0002 32L34.8001 30.0479L33.5337 31.2443M33.5337 31.2443L29 27M29 27L28.9452 25.8676L27.3806 24.8082L26.6622 25.5997L27.8676 27.0548L29 27ZM51.4544 33.2346C49.3934 35.3472 46.0518 35.3472 43.9908 33.2346C41.9298 31.1221 41.9298 27.697 43.9908 25.5844C45.456 24.0825 47.5685 23.6484 49.4079 24.282L46.0202 27.7544C45.5864 28.199 45.5864 28.92 46.0202 29.3646L47.7664 31.1545C48.2002 31.5991 48.9036 31.5991 49.3374 31.1545L52.7251 27.6821C53.3432 29.5675 52.9197 31.7328 51.4544 33.2346Z" stroke="#3E47DD" stroke-width="2" stroke-linecap="round" stroke-linejoin="round"/>
</svg>
