<svg width="80" height="80" viewBox="0 0 80 80" fill="none" xmlns="http://www.w3.org/2000/svg">
<path d="M41.3268 0.221234C40.4664 -0.0737465 39.5333 -0.0737445 38.6729 0.221239L7.7907 10.8092C6.12202 11.3813 5 12.9597 5 14.7351V47.5913C5 58.8989 26.2096 72.523 37.9564 79.4412C39.2215 80.1863 40.7782 80.1863 42.0433 79.4412C53.7901 72.523 75 58.8989 75 47.5913V14.7351C75 12.9597 73.878 11.3813 72.2093 10.8092L41.3268 0.221234Z" fill="#EBEDFE"/>
<path d="M56.6216 29.9573L59.3525 34.0691C59.7881 34.7249 60.0205 35.4948 60.0205 36.2821V44.996M60.0205 44.996C60.0205 47.2051 58.2296 48.996 56.0205 48.996H55.5M60.0205 44.996L60.0207 52.008C60.0207 52.5603 59.573 53.008 59.0207 53.008L57.3931 53.0079M25.4431 27.5L27.8259 23.1128C28.5251 21.8253 29.8723 21.0231 31.3374 21.0218L43.3525 21.0112M20.0205 44V44.996C20.0205 47.2051 21.8114 48.996 24.0205 48.996H38.0205M20 45.3091V51.9963C20 52.5486 20.4477 52.9963 21 52.9963L26.0206 52.9962C26.5728 52.9962 27.0205 52.5485 27.0205 51.9962V49.0963M27 37L29.5205 37.4972M56.5205 35.9972L50.5205 37.4972M56.5 30C56.5 30 52.1726 31.9976 46.7639 31.9976H33.5569C31.4978 31.9976 29.5829 31.7809 28 31.5122M34.022 37.997H45.6697C46.6414 37.997 47.3566 38.9067 47.1273 39.8509L46.3988 42.8509C46.2355 43.5235 45.6333 43.997 44.9412 43.997H34.7399C34.046 43.997 33.4427 43.521 33.2811 42.8461L32.5632 39.8461C32.3375 38.9031 33.0523 37.997 34.022 37.997Z" stroke="#3E47DD" stroke-width="2" stroke-miterlimit="10" stroke-linecap="round" stroke-linejoin="round"/>
<path d="M51 19.8456L53.0208 22L57 18M54 13C57.866 13 61 16.134 61 20C61 23.866 57.866 27 54 27C50.134 27 47 23.866 47 20C47 16.134 50.134 13 54 13Z" stroke="#3E47DD" stroke-width="2" stroke-linecap="round" stroke-linejoin="round"/>
<path d="M15 33.8456L17.0208 36L21 32M18 27C21.866 27 25 30.134 25 34C25 37.866 21.866 41 18 41C14.134 41 11 37.866 11 34C11 30.134 14.134 27 18 27Z" stroke="#3E47DD" stroke-width="2" stroke-linecap="round" stroke-linejoin="round"/>
<path d="M44 53.8456L46.0208 56L50 52M47 47C50.866 47 54 50.134 54 54C54 57.866 50.866 61 47 61C43.134 61 40 57.866 40 54C40 50.134 43.134 47 47 47Z" stroke="#3E47DD" stroke-width="2" stroke-linecap="round" stroke-linejoin="round"/>
</svg>
