<svg xmlns="http://www.w3.org/2000/svg" version="1.1" xmlns:xlink="http://www.w3.org/1999/xlink"
    width="512" height="512" x="0" y="0" viewBox="0 0 96 96"
    style="enable-background:new 0 0 512 512" xml:space="preserve" class=""><g><path d="M96 55.63c-.25-3.89 0-6.52-1.89-9.83A12.92 12.92 0 0 0 88 40.27c-1.94-.88-2.44-.8-16.77-3.38-13.41-7.87-14.7-8.8-17.92-10a31.39 31.39 0 0 0-11.14-2.05c-19 0-19.5-.19-23.53.49-5.36.9-9 3.06-13.92 5.5a9.25 9.25 0 0 0-1.93 1.35 6.21 6.21 0 0 0-1.15 1.29 8.6 8.6 0 0 0-1.38 3c-.31 1.31-.22.76-.22 16a6.46 6.46 0 0 0 .46 2.78 6 6 0 0 0 1.32 2c2.64 2.63 3.52 3.8 5.36 4.33a9 9 0 0 0 3 .26 10.34 10.34 0 0 0 20.58 0h39.08a10.34 10.34 0 0 0 20.58 0A5.87 5.87 0 0 0 96 55.63zM84.72 41.45a10.51 10.51 0 0 1 4.17 1.71A10.78 10.78 0 0 1 91 45a9.25 9.25 0 0 1 1 1.36l-.53.28a3.69 3.69 0 0 1-2.91.23l-12.06-4.1a1.48 1.48 0 0 1-.92-.92l-.76-2.17c4.11.72 1.96.32 9.9 1.77zM62.43 41c2.91 0 4.25-1.72 5.93-3.39l1 .62-2.88 5a5.17 5.17 0 0 0-.7 2.6v5.97a2 2 0 0 1-2 2h-22A.94.94 0 0 1 41 53l-2.41-12zM42.15 26.93a29.15 29.15 0 0 1 14.75 4l9.57 5.61c-1.22 1.24-2.09 2.39-4 2.39H42c-1.46-6.63-1.07-4.85-2.63-12zm-5 0c1.56 7.14 1.17 5.37 2.64 12h-3.6c-.93-4.26-.71-3.29-2.64-12zM19 27.4c3.14-.61 6-.47 12.42-.47l2.64 12c-11.37 0-11.35.1-12.67-.28C18.74 26.61 18.87 27.4 19 27.4zm-5.84 1.67a27.42 27.42 0 0 1 3.7-1.2L19 37.43c-1.75-1.71-.19.57-5.84-8.36zM2.84 35.46c.1-.21.38-.63.45-.74l.25-.33a6.06 6.06 0 0 1 .59-.63l.33-.28A5.88 5.88 0 0 1 6 32.56C7.9 35.82 7.5 34.42 7.5 44c-.64-.21-.74-.15-5.4-.15 0-6.01-.2-6.43.74-8.39zM2.1 46h4.49a.9.9 0 0 1 .84 1.24c-.08.21.23-.57-1.45 3.72a.89.89 0 0 1-.84.57h-3zm18.3 23.07a8.24 8.24 0 1 1 8.23-8.24 8.25 8.25 0 0 1-8.23 8.24zm59.73 0a8.24 8.24 0 1 1 8.24-8.24 8.25 8.25 0 0 1-8.24 8.24zm13.36-11.35a3.76 3.76 0 0 1-3.07 2 10.35 10.35 0 0 0-20.58 0H30.68a10.34 10.34 0 0 0-20.58 0c-1.39 0-2.7.14-4-1.16-3-3-3-3-3.33-3.42a3.85 3.85 0 0 1-.61-1.61h3a3 3 0 0 0 2.8-1.92c1.79-4.6 1.64-3.95 1.64-5.15V36.39c0-2.19-.93-3.42-1.78-4.84 6.07-3.06.3-.15 3.38-1.69 4.69 7.45 4.49 7.31 5.69 8.51A9.47 9.47 0 0 0 23.42 41h13l2.44 12.39a3.07 3.07 0 0 0 3 2.46h22a4.09 4.09 0 0 0 4.09-4.09v-5.84c0-1.1.2-1.19 3.44-6.86l1.08.19 1.13 3.29a3.62 3.62 0 0 0 2.22 2.22c13.25 4.56 12.65 4.47 13.93 4.47a6.18 6.18 0 0 0 3.19-.94 1 1 0 0 1 .1.28 10 10 0 0 1 .58 2.85c.28 4.51.48 5.09-.13 6.3z" fill="#000000" opacity="1" data-original="#000000" class=""></path><path d="M20.4 56.21a4.62 4.62 0 1 0 4.6 4.62 4.63 4.63 0 0 0-4.6-4.62zm0 7.14a2.52 2.52 0 1 1 2.51-2.52 2.52 2.52 0 0 1-2.51 2.52zM80.12 56.21a4.62 4.62 0 1 0 4.63 4.62 4.63 4.63 0 0 0-4.63-4.62zm0 7.14a2.52 2.52 0 1 1 2.53-2.52 2.52 2.52 0 0 1-2.53 2.52zM43.32 45.82h3.2a1.05 1.05 0 0 0 0-2.1h-3.2a1.05 1.05 0 1 0 0 2.1z"  opacity="1" data-original="#000000" class=""></path></g></svg> 