<svg xmlns="http://www.w3.org/2000/svg" version="1.1" xmlns:xlink="http://www.w3.org/1999/xlink" width="512" height="512" x="0" y="0" viewBox="0 0 43.349 43.349" style="enable-background:new 0 0 512 512" xml:space="preserve" fill-rule="evenodd"><g><path d="M31.491 26.797H11.86a.473.473 0 0 1 0-.947h19.632a.473.473 0 0 1 0 .947zm9.685 0H37.91a.473.473 0 0 1 0-.947h3.267c.841 0 1.115-.762 1.197-1.402.215-1.69-.77-3.977-2.365-4.39-.586-.153-1.713-.344-2.906-.546-3.05-.516-5.262-.921-5.949-1.428-5.909-4.363-16.391-5.056-22.432-1.483-.198.12-4.799 2.889-7.272 3.417-.259.74-.96 3.183-.02 5.832h4.015a.473.473 0 0 1 0 .947H1.1a.473.473 0 0 1-.439-.298c-1.462-3.656-.055-6.95.006-7.088a.474.474 0 0 1 .363-.278c2.203-.333 7.155-3.314 7.205-3.344 3.153-1.865 7.397-2.707 11.953-2.373 4.401.323 8.601 1.747 11.527 3.906.558.413 3.559.92 5.544 1.257 1.267.215 2.36.4 2.986.562 1.94.504 3.101 2.806 3.103 4.81v.012c0 .206-.012.408-.037.605-.179 1.396-.977 2.229-2.135 2.229z" fill="#000000" opacity="1" data-original="#000000"></path><path d="M8.706 18.606h20.119c-2.724-1.564-6.352-2.521-10.025-2.609-3.556-.085-6.82.65-9.196 2.07l-.068.041c-.254.154-.532.322-.83.498zm21.712.947H6.906a.473.473 0 0 1-.222-.891c.901-.48 1.711-.97 2.362-1.364l.071-.042c2.529-1.511 5.974-2.293 9.706-2.205 4.489.107 8.928 1.47 11.877 3.648a.474.474 0 0 1-.282.854z" fill="#000000" opacity="1" data-original="#000000"></path><path d="M18.811 19.553a.473.473 0 0 1-.473-.473v-3.556a.473.473 0 1 1 .946 0v3.556a.474.474 0 0 1-.473.473zM22.715 21.236h-1.948a.473.473 0 0 1 0-.947h1.948a.473.473 0 0 1 0 .947zM11.054 21.236H9.106a.473.473 0 0 1 0-.947h1.948a.473.473 0 0 1 0 .947zM34.7 23.588a2.739 2.739 0 0 0-2.736 2.735 2.739 2.739 0 0 0 2.736 2.735 2.738 2.738 0 0 0 2.735-2.735 2.738 2.738 0 0 0-2.735-2.735zm0 6.417a3.686 3.686 0 0 1-3.682-3.682c0-2.03 1.652-3.681 3.682-3.681s3.682 1.651 3.682 3.681a3.686 3.686 0 0 1-3.682 3.682z" fill="#000000" opacity="1" data-original="#000000"></path><path d="M34.7 25.368a.957.957 0 0 0-.955.955.956.956 0 1 0 .955-.955zm0 2.857a1.904 1.904 0 0 1-1.902-1.902c0-1.048.853-1.901 1.902-1.901s1.901.853 1.901 1.901a1.903 1.903 0 0 1-1.9 1.902zM8.651 23.588a2.738 2.738 0 0 0-2.735 2.735 2.738 2.738 0 0 0 2.735 2.735 2.738 2.738 0 0 0 2.735-2.735 2.738 2.738 0 0 0-2.735-2.735zm0 6.417a3.685 3.685 0 0 1-3.681-3.682 3.685 3.685 0 0 1 3.68-3.681 3.685 3.685 0 0 1 3.683 3.681 3.685 3.685 0 0 1-3.682 3.682z" fill="#000000" opacity="1" data-original="#000000"></path><path d="M8.651 25.368a.957.957 0 0 0 0 1.91.956.956 0 0 0 0-1.91zm0 2.857a1.905 1.905 0 0 1-1.902-1.902c0-1.048.854-1.901 1.902-1.901 1.049 0 1.902.853 1.902 1.901a1.904 1.904 0 0 1-1.902 1.902zM41.185 22.76c-.428 0-.837-.092-1.227-.276-1.688-.801-2.325-3.067-2.352-3.163a.473.473 0 0 1 .913-.25c.006.019.552 1.947 1.847 2.559.572.27 1.2.244 1.926-.078a.472.472 0 1 1 .385.864c-.517.23-1.015.345-1.492.345zM.527 22.493a.473.473 0 0 1-.048-.943c1.033-.11 1.756-.444 2.147-.995.503-.709.305-1.58.303-1.59a.473.473 0 0 1 .92-.224c.012.052.305 1.283-.442 2.35-.554.789-1.507 1.26-2.83 1.4a.495.495 0 0 1-.05.002z" fill="#000000" opacity="1" data-original="#000000"></path></g></svg>