<svg xmlns="http://www.w3.org/2000/svg" version="1.1" xmlns:xlink="http://www.w3.org/1999/xlink" width="512" height="512" x="0" y="0" viewBox="0 0 512 512" style="enable-background:new 0 0 512 512" xml:space="preserve"><g><path d="M48.55 335.289a48.076 48.076 0 0 0 47.447 40.706h32a48.07 48.07 0 0 0 47.346-40.144l73.26-.268a48.072 48.072 0 0 0 47.394 40.412h32a47.888 47.888 0 0 0 35.996-16.298 48.326 48.326 0 0 0 36.004 16.298h32a48.067 48.067 0 0 0 47.51-41.21 24.038 24.038 0 0 0 16.49-22.79v-64a56.064 56.064 0 0 0-56-56h-52.995l-41.378-36.206a79.979 79.979 0 0 0-52.68-19.794H99.878a55.634 55.634 0 0 0-39.598 16.401l-34.912 34.912a31.79 31.79 0 0 0-9.372 22.628v86.059a40.06 40.06 0 0 0 32.553 39.294zm.32-16.375a24.109 24.109 0 0 1-15.54-15.044 7.988 7.988 0 0 0 4.914-2.878l12.01-15.012a58.58 58.58 0 0 1 91.486 0l12.01 15.012a8 8 0 0 0 6.247 3.003h16v15.853l-32.685.12a47.991 47.991 0 0 0-94.443-1.054zm15.127 9.08a32 32 0 1 1 32 32 32.036 32.036 0 0 1-32-32zm67.958 31.747a47.846 47.846 0 0 0 11.367-23.773l15.682-.057a32.077 32.077 0 0 1-27.05 23.83zm132.042-31.746a32 32 0 1 1 32 32 32.036 32.036 0 0 1-32-32zm67.958 31.746a47.846 47.846 0 0 0 11.362-23.746h15.667a32.079 32.079 0 0 1-27.03 23.746zm40.929-14.765a47.57 47.57 0 0 0 2.433-8.981h55.667a31.995 31.995 0 0 1-58.1 8.98zm63.07 14.765a47.846 47.846 0 0 0 11.363-23.746h15.667a32.079 32.079 0 0 1-27.03 23.746zm36.043-39.746h-128.68a47.989 47.989 0 0 0-94.567-.412l-56.753.207v-15.795h40a8 8 0 0 0 6.247-3.003l12.01-15.012a58.58 58.58 0 0 1 91.486 0l12.01 15.012a8 8 0 0 0 6.247 3.003h120v8a8.01 8.01 0 0 1-8 8zm-88-64a16.018 16.018 0 0 1-16-16h24v16zm24-16h71.195a40.027 40.027 0 0 1 .805 8v8h-72zm32-32a39.962 39.962 0 0 1 31.978 16H359.997a8 8 0 0 0-8 8v8a32.036 32.036 0 0 0 32 32h96v16H363.842l-9.608-12.01a74.58 74.58 0 0 0-116.475 0l-9.608 12.01h-36.154v-16a7.999 7.999 0 0 0-2.344-5.657l-21.656-21.657v-36.686h272zm-147.054-56a63.981 63.981 0 0 1 42.145 15.835l27.617 24.165h-71.703l-41.378-36.206a80.059 80.059 0 0 0-4.71-3.794zm-96 0a63.981 63.981 0 0 1 42.145 15.835l27.617 24.165h-98.708v-40zm-44.946 40H87.542l28.571-40h35.884zm-115.314 6.627 34.911-34.912a39.694 39.694 0 0 1 24.741-11.553l-30.848 43.188a8 8 0 0 0 6.51 12.65h80v40a7.999 7.999 0 0 0 2.343 5.656l21.657 21.658v12.686h-12.155l-9.608-12.01a74.58 74.58 0 0 0-116.475 0l-5.762 7.203v-27.193h8a8 8 0 0 0 6.656-3.563l16-24a8 8 0 0 0-6.656-12.437h-24v-6.06a15.894 15.894 0 0 1 4.686-11.313zm-4.686 41.373v-8h9.051l-5.333 8z" fill="#000000" opacity="1" data-original="#000000"></path><circle cx="95.997" cy="327.995" r="8" fill="#000000" opacity="1" data-original="#000000"></circle><path d="M191.997 231.995h24v16h-24z" fill="#000000" opacity="1" data-original="#000000"></path><circle cx="295.997" cy="327.995" r="8" fill="#000000" opacity="1" data-original="#000000"></circle></g></svg>