<?xml version="1.0" encoding="utf-8"?>
<!-- Generator: Adobe Illustrator 22.1.0, SVG Export Plug-In . SVG Version: 6.00 Build 0)  -->
<svg version="1.1" id="Layer_1" xmlns="http://www.w3.org/2000/svg" xmlns:xlink="http://www.w3.org/1999/xlink" x="0px" y="0px"
	 viewBox="0 0 200 200" style="enable-background:new 0 0 200 200;" xml:space="preserve">
<style type="text/css">
	.st0{fill:#E6E6E6;}
	.st1{opacity:0.11;fill:#593025;}
	.st2{fill:#E54B1C;}
	.st3{fill:#3D3D3D;}
	.st4{fill:#424242;}
	.st5{fill:#2D2D2D;}
	.st6{fill:#E85A28;}
	.st7{fill:#4D4D4D;}
	.st8{fill:#DDDDDD;}
	.st9{fill:#696970;}
	.st10{opacity:0.11;fill:#FFFFFF;}
	.st11{fill:#F45B2C;}
	.st12{opacity:0.14;}
	.st13{opacity:0.59;}
	.st14{opacity:0.53;}
	.st15{fill:#EDEDED;}
	.st16{fill:#4F4F4F;}
	.st17{fill:#595959;}
	.st18{fill:#494949;}
	.st19{fill:#9ECCC9;}
	.st20{fill:#86B2B0;}
	.st21{fill:#DB2E05;}
	.st22{opacity:0.55;fill:#FFFFFF;}
	.st23{fill:#D1421C;}
	.st24{fill:#F45D2F;}
	.st25{opacity:0.42;fill:#FFFFFF;}
	.st26{opacity:0.24;fill:#FFFFFF;}
	.st27{fill:#DD4F24;}
	.st28{opacity:0.1;fill:#3D2405;}
	.st29{opacity:0.12;fill:#FFFFFF;}
	.st30{opacity:0.15;}
	.st31{fill:#495259;}
	.st32{fill:#959CAF;}
	.st33{opacity:0.11;}
	.st34{fill:#363C42;}
	.st35{opacity:9.000000e-02;}
	.st36{fill:#343A42;}
	.st37{fill:#616970;}
	.st38{opacity:7.000000e-02;fill:#FFFFFF;}
	.st39{fill:#424951;}
	.st40{fill:#E5A185;}
	.st41{opacity:0.64;fill:#D58A73;}
	.st42{opacity:0.4;fill:#D58A73;}
	.st43{fill:#6D7DB3;}
	.st44{fill:#B6BDCE;}
	.st45{fill:#D78C74;}
	.st46{fill:#381911;}
	.st47{opacity:0.38;}
	.st48{fill:#E5A084;}
	.st49{fill:#E59F83;}
	.st50{fill:#E49E83;}
	.st51{fill:#E49D82;}
	.st52{fill:#E49C81;}
	.st53{fill:#E49B80;}
	.st54{fill:#E49A80;}
	.st55{fill:#E3997F;}
	.st56{fill:#E3987E;}
	.st57{fill:#E3977D;}
	.st58{fill:#E3967C;}
	.st59{fill:#E2957C;}
	.st60{fill:#E2947B;}
	.st61{fill:#E2937A;}
	.st62{fill:#E29279;}
	.st63{fill:#E29179;}
	.st64{fill:#E19078;}
	.st65{fill:#E18F77;}
	.st66{fill:#E18E76;}
	.st67{fill:#E18D75;}
	.st68{fill:#E18C75;}
	.st69{fill:#E08B74;}
	.st70{fill:#E08A73;}
	.st71{fill:#E08972;}
	.st72{fill:#E08872;}
	.st73{fill:#DF8771;}
	.st74{fill:#DF8670;}
	.st75{fill:#DF856F;}
	.st76{fill:#DF846F;}
	.st77{fill:#DF836E;}
	.st78{fill:#DE826D;}
	.st79{fill:#DE816C;}
	.st80{fill:#DE806B;}
	.st81{fill:#DE7F6B;}
	.st82{fill:#DE7E6A;}
	.st83{fill:#DD7D69;}
	.st84{fill:#DD7C68;}
	.st85{fill:#DD7B68;}
	.st86{fill:#DD7A67;}
	.st87{fill:#DD7A66;}
	.st88{fill:#DC7965;}
	.st89{fill:#DC7864;}
	.st90{fill:#DC7764;}
	.st91{fill:#DC7663;}
	.st92{fill:#DB7562;}
	.st93{fill:#DB7461;}
	.st94{fill:#DB7361;}
	.st95{fill:#DB7260;}
	.st96{fill:#DB715F;}
	.st97{fill:#DA705E;}
	.st98{fill:#DA6F5D;}
	.st99{fill:#DA6E5D;}
	.st100{fill:#DA6D5C;}
	.st101{fill:#DA6C5B;}
	.st102{fill:#D96B5A;}
	.st103{fill:#D96A5A;}
	.st104{fill:#D96959;}
	.st105{fill:#D96858;}
	.st106{fill:#D86757;}
	.st107{fill:#D86657;}
	.st108{fill:#D86556;}
	.st109{fill:#D86455;}
	.st110{fill:#D86354;}
	.st111{fill:#D76253;}
	.st112{fill:#D76153;}
	.st113{fill:#D76052;}
	.st114{fill:#D75F51;}
	.st115{fill:#D75E50;}
	.st116{fill:#D65D50;}
	.st117{fill:#D65C4F;}
	.st118{fill:#D65B4E;}
	.st119{fill:#D65A4D;}
	.st120{fill:#D5594C;}
	.st121{fill:#D5584C;}
	.st122{fill:#D5574B;}
	.st123{fill:#D5564A;}
	.st124{fill:#D55549;}
	.st125{fill:#D45449;}
	.st126{fill:#D45348;}
	.st127{fill:#D45247;}
	.st128{opacity:0.52;fill:#D78C74;}
	.st129{fill:#FFFFFF;}
	.st130{fill:url(#XMLID_11_);}
	.st131{opacity:0.6;fill:#FFFFFF;}
	.st132{fill:url(#XMLID_12_);}
	.st133{fill:#422E26;}
	.st134{fill:#6C332E;}
	.st135{opacity:0.35;fill:#C3BBA5;}
	.st136{opacity:0.2;fill:#FFFFFF;}
	.st137{fill:#4F372D;}
	.st138{opacity:0.11;fill:#E5912F;}
	.st139{opacity:0.16;}
	.st140{fill:#3D4041;}
	.st141{fill:#DFE5EA;}
	.st142{fill:#7588BC;}
	.st143{opacity:8.000000e-02;fill:#002A3D;}
	.st144{fill:#B0B5C1;}
	.st145{opacity:0.45;}
	.st146{fill:#D58A73;}
	.st147{opacity:0.65;fill:#D78C74;}
	.st148{fill:#70797F;}
	.st149{fill:#80898E;}
	.st150{opacity:0.3;}
	.st151{opacity:0.56;}
	.st152{fill:#BBDEFB;}
	.st153{fill:#9DC89E;}
	.st154{fill:#599E85;}
	.st155{fill:#70617F;}
	.st156{fill:#7BCEEF;}
	.st157{fill:#374C82;}
	.st158{fill:#4EAFE5;}
	.st159{fill:#95CEF4;}
	.st160{fill:#349FCE;}
	.st161{fill:#62B9E8;}
	.st162{fill:#DEF2FF;}
	.st163{fill:#68BBEA;}
	.st164{opacity:0.31;}
	.st165{fill:#EA876C;}
	.st166{fill:#FB9D7E;}
	.st167{fill:#F8CD9E;}
	.st168{opacity:0.2;}
	.st169{opacity:0.5;}
	.st170{opacity:0.7;}
	.st171{fill:#2E2F4D;}
	.st172{fill:#F6A49D;}
	.st173{fill:#D47C74;}
	.st174{fill:#E96362;}
	.st175{fill:#4F1D30;}
	.st176{fill:#F48FB1;}
	.st177{fill:#E06594;}
	.st178{fill:#7986CB;}
	.st179{fill:#5F6FB2;}
	.st180{fill:#FFEFE7;}
	.st181{fill:#7CB7E3;}
	.st182{fill:#6AA8CE;}
	.st183{fill:#E6F5FF;}
	.st184{fill:#0A1334;}
	.st185{stroke:#000000;stroke-width:2;stroke-linecap:round;stroke-miterlimit:10;}
	.st186{stroke:#FFFFFF;stroke-width:2;stroke-miterlimit:10;}
	.st187{clip-path:url(#SVGID_2_);}
	.st188{fill:none;stroke:#000000;stroke-width:4;stroke-linecap:round;stroke-linejoin:round;stroke-miterlimit:10;}
</style>
<g>
	<g>
		<path d="M172.4,138.4c-1.5,0-2.8-1-3.2-2.4l-15.5-57.1c-0.2-0.9-0.1-1.8,0.3-2.5c0.4-0.8,1.2-1.3,2-1.5l23.9-6.4
			c1.8-0.5,3.6,0.6,4.1,2.3l15.4,57.2c0.2,0.9,0.1,1.8-0.3,2.5c-0.4,0.8-1.2,1.3-2,1.5l-23.8,6.3
			C172.9,138.3,172.6,138.4,172.4,138.4L172.4,138.4z M160.9,80.2l13.8,50.8l17.4-4.6l-13.7-50.8L160.9,80.2z"/>
		<path d="M161.2,135c-3.9,0-7.8-1.2-11.2-3.4l-32.2-21.4c-3.2-2.1-7.3-2.1-10.5-0.1L95,118c-2.5,1.6-5.6,2-8.4,1.2
			c-2.9-0.8-5.2-2.9-6.5-5.6c-1.9-4.1-0.9-8.9,2.4-11.9l21.1-19.4c5.4-4.9,13.1-6.7,20.1-4.6l16.2,4.9c3.6,1.1,7.5,1.2,11.2,0.1
			l6.7-1.9c0.9-0.2,1.8-0.1,2.5,0.3c0.8,0.4,1.3,1.2,1.6,2l12.3,45.2c0.5,1.7-0.5,3.5-2.2,4l-4.5,1.4
			C165.3,134.7,163.2,135,161.2,135z M112.4,102c3.1,0,6.3,0.9,9,2.7l32.2,21.4c3.5,2.3,7.7,2.9,11.7,1.6l1.5-0.5l-10.6-38.9l-3.5,1
			c-4.9,1.4-10,1.3-14.9-0.2l-16.2-4.9c-4.8-1.5-10-0.3-13.7,3.1l-21.1,19.4c-1.2,1.1-1.5,2.8-0.8,4.2c0.5,1,1.3,1.7,2.3,2
			c1,0.3,2.1,0.1,3-0.4l12.3-7.9C106.3,102.9,109.4,102,112.4,102L112.4,102z"/>
		<path d="M46.2,138.2c-0.5,0-0.9-0.1-1.4-0.3l-15-7c-1.6-0.7-2.3-2.6-1.7-4.2L45,84.8c0.6-1.4,2.1-2.3,3.6-2L60,84.4
			c2.9,0.4,5.8,0.1,8.5-0.9l23.9-8.7c3.3-1.2,6.9-1.1,10.2,0.2l9.1,3.7c1.7,0.7,2.5,2.6,1.8,4.3c-0.7,1.7-2.6,2.5-4.3,1.8l-9.1-3.7
			c-1.7-0.7-3.7-0.7-5.4-0.1l-23.9,8.7C67,91.2,62.9,91.6,59,91l-8.9-1.3l-14.7,36.5l12.2,5.7c1.7,0.8,2.4,2.7,1.6,4.4
			C48.7,137.5,47.5,138.2,46.2,138.2L46.2,138.2z"/>
		<path d="M49.9,151c-2,0-4-0.6-5.7-1.8c-4.5-3.2-5.5-9.3-2.4-13.8l4.2-5.9c1.5-2.2,3.8-3.6,6.4-4c2.6-0.4,5.2,0.2,7.4,1.7
			c4.5,3.2,5.5,9.3,2.4,13.8l-4.2,5.9c-1.5,2.2-3.8,3.6-6.4,4C51,150.9,50.4,151,49.9,151z M54.1,131.9c-0.2,0-0.4,0-0.6,0
			c-0.9,0.1-1.6,0.6-2.1,1.3l-4.2,5.9c-1,1.5-0.7,3.5,0.8,4.6c0.7,0.5,1.6,0.7,2.4,0.6c0.9-0.1,1.6-0.6,2.1-1.3l4.2-5.9
			c1-1.5,0.7-3.5-0.8-4.6C55.4,132.1,54.8,131.9,54.1,131.9z"/>
		<path d="M58.9,161.8c-2,0-4.1-0.6-5.9-1.9c-4.6-3.2-5.7-9.6-2.4-14.2l12.6-17.8c3.2-4.6,9.6-5.7,14.2-2.4
			c4.6,3.2,5.7,9.6,2.4,14.2l-12.6,17.8C65.3,160.3,62.1,161.8,58.9,161.8z M71.6,130.3c-1.1,0-2.2,0.5-2.9,1.5l-12.6,17.8
			c-1.1,1.6-0.7,3.8,0.8,4.9c1.6,1.1,3.8,0.7,4.9-0.8l12.6-17.8c1.1-1.6,0.8-3.8-0.8-4.9C73,130.5,72.3,130.3,71.6,130.3L71.6,130.3
			z"/>
		<path d="M73.1,165.5c-2,0-4.1-0.6-5.9-1.9c-4.6-3.2-5.7-9.6-2.4-14.2l9-12.7c3.2-4.6,9.6-5.7,14.2-2.4c2.2,1.6,3.7,3.9,4.1,6.6
			c0.5,2.7-0.2,5.4-1.7,7.6l-9,12.7C79.4,164,76.3,165.5,73.1,165.5L73.1,165.5z M82.1,139.1c-0.2,0-0.4,0-0.6,0.1
			c-0.9,0.2-1.7,0.7-2.3,1.4l-9,12.7c-0.5,0.8-0.8,1.7-0.6,2.6c0.2,0.9,0.7,1.7,1.4,2.3c1.6,1.1,3.8,0.7,4.9-0.8l9-12.7
			c0.5-0.8,0.8-1.7,0.6-2.6c-0.2-0.9-0.7-1.7-1.4-2.3C83.6,139.3,82.8,139.1,82.1,139.1z"/>
		<path d="M85.5,172.5c-2.1,0-4.2-0.7-6-1.9c-4.7-3.3-5.8-9.9-2.5-14.6l7.1-10c1.6-2.3,4-3.8,6.8-4.3c2.8-0.5,5.5,0.2,7.8,1.8
			c2.3,1.6,3.8,4,4.3,6.8c0.5,2.8-0.2,5.5-1.8,7.8l-7.1,10c-1.6,2.3-4,3.8-6.8,4.3C86.7,172.4,86.1,172.5,85.5,172.5L85.5,172.5z
			 M92.6,148.2c-0.2,0-0.4,0-0.7,0.1c-1,0.2-1.9,0.7-2.5,1.6l-7.1,10c-1.2,1.7-0.8,4.1,0.9,5.3c0.8,0.6,1.9,0.8,2.9,0.6
			c1-0.2,1.9-0.7,2.5-1.6l7.1-10c0.6-0.8,0.8-1.8,0.6-2.9c-0.2-1-0.7-1.9-1.6-2.5C94.1,148.5,93.4,148.2,92.6,148.2L92.6,148.2z"/>
		<path d="M114.7,168.8c-1.1,0-2.3-0.2-3.3-0.7L95.8,161c-1.7-0.8-2.4-2.7-1.6-4.4c0.8-1.7,2.7-2.4,4.4-1.6l15.6,7.1
			c0.6,0.3,1.4,0.1,1.7-0.5c0.3-0.5,0.3-0.9,0.2-1.1c-0.1-0.2-0.2-0.7-0.7-0.9l-8.7-4.7c-1.6-0.9-2.2-2.9-1.3-4.5
			c0.9-1.6,2.9-2.2,4.5-1.3l8.7,4.7c2,1.1,3.5,3,4,5.2c0.5,2.2,0.1,4.6-1.2,6.5C119.8,167.6,117.3,168.8,114.7,168.8L114.7,168.8z"
			/>
		<path d="M127.2,164.2c-1.4,0-2.8-0.3-4.1-1l-8.6-4.2c-1.6-0.8-2.3-2.8-1.5-4.4c0.8-1.6,2.8-2.3,4.4-1.5l8.6,4.2
			c1.2,0.6,2.7,0.2,3.5-0.9c0.4-0.6,0.6-1.4,0.4-2.2c-0.2-0.8-0.6-1.4-1.3-1.8l-25.2-14.7c-1.6-0.9-2.1-2.9-1.2-4.5
			c0.9-1.6,2.9-2.1,4.5-1.2l25.2,14.7c2.3,1.3,3.9,3.5,4.4,6.1c0.6,2.5,0.1,5.2-1.4,7.4C133.1,162.8,130.2,164.2,127.2,164.2
			L127.2,164.2z"/>
		<path d="M136.1,155.3c-1.7,0-3.4-0.5-4.9-1.3l-19.8-11.6c-1.6-0.9-2.1-3-1.2-4.5c0.9-1.6,3-2.1,4.5-1.2l19.8,11.6
			c0.7,0.4,1.6,0.5,2.4,0.3c0.8-0.2,1.5-0.8,1.9-1.5c0.8-1.5,0.3-3.3-1.1-4.2L113,127.7c-1.6-1-2-3-1.1-4.6c1-1.6,3-2,4.6-1.1
			l24.8,15.2c4.5,2.7,6,8.5,3.5,13.1c-1.3,2.3-3.4,4-6,4.7C137.8,155.2,136.9,155.3,136.1,155.3L136.1,155.3z"/>
		<path d="M146,146.1c-2.1,0-4.2-0.6-6.1-1.8l-9.7-6.1c-1.5-1-2-3-1-4.6s3-2,4.6-1l9.7,6.1c1.1,0.7,2.4,0.9,3.7,0.6
			c1.3-0.3,2.3-1.1,3-2.2c1.3-2.2,0.6-5-1.5-6.4l-17.4-11.5c-1.5-1-1.9-3.1-0.9-4.6c1-1.5,3.1-1.9,4.6-0.9l17.4,11.5
			c5,3.3,6.6,10,3.5,15.2c-1.6,2.7-4.1,4.6-7.1,5.3C147.8,146,146.9,146.1,146,146.1z"/>
		<path d="M28.4,137.6c-0.4,0-0.8-0.1-1.2-0.2l-24.6-9.5c-0.8-0.3-1.5-0.9-1.8-1.7c-0.4-0.8-0.4-1.7-0.1-2.5L22,68.3
			c0.6-1.7,2.5-2.5,4.2-1.9l26,9.3c0.9,0.3,1.6,1,1.9,1.8c0.4,0.8,0.4,1.8,0,2.6l-3.1,7.3l-16.8,41.8l-2.8,6.5
			C30.9,136.9,29.7,137.6,28.4,137.6z M8.1,122.9l18.5,7.1l1.5-3.5L45,84.8c0,0,1.7-4.1,1.7-4.1l-19.6-7L8.1,122.9z"/>
	</g>
	<g id="Layer_67_1_">
		<path d="M53.3,95.3l-4.9,12.2v13.8c1-0.4,2-0.7,3.1-0.9c0.8-0.1,1.5-0.2,2.3-0.2V95.4L53.3,95.3z M53.3,95.3l-4.9,12.2v13.8
			c1-0.4,2-0.7,3.1-0.9c0.8-0.1,1.5-0.2,2.3-0.2V95.4L53.3,95.3z M53.3,95.3l-4.9,12.2v13.8c1-0.4,2-0.7,3.1-0.9
			c0.8-0.1,1.5-0.2,2.3-0.2V95.4L53.3,95.3z M48.5,21.6v47.2l5.4,1.9V27.1h92.2v51.5c0.8,0,1.6-0.1,2.3-0.3
			c-0.1-1.6,0.3-3.2,1.1-4.6c0.5-0.9,1.2-1.7,2-2.3V21.6H48.5z M48.5,107.5v13.8c1-0.4,2-0.7,3.1-0.9c0.8-0.1,1.5-0.2,2.3-0.2V95.4
			l-0.5-0.1L48.5,107.5z M53.3,95.3l-4.9,12.2v13.8c1-0.4,2-0.7,3.1-0.9c0.8-0.1,1.5-0.2,2.3-0.2V95.4L53.3,95.3z M149.1,152.7
			c-0.8,1.4-1.8,2.7-3,3.8v37.1H53.9V166c-1.3-0.5-2.6-1.1-3.7-1.9c-0.6-0.4-1.2-0.9-1.7-1.4V199h103.1v-48.8
			c-0.5,0.2-1,0.3-1.5,0.5C149.8,151.4,149.5,152.1,149.1,152.7z M146.1,95.4V115l4.8,3.2l0.7,0.4V94.8
			C149.8,95.1,147.9,95.3,146.1,95.4z M53.3,95.3l-4.9,12.2v13.8c1-0.4,2-0.7,3.1-0.9c0.8-0.1,1.5-0.2,2.3-0.2V95.4L53.3,95.3z"/>
		<path d="M62,96.3v25.5c1.6-1.3,3.4-2.2,5.4-2.8V95.9C65.7,96.2,63.8,96.4,62,96.3z M136.3,94l-3.8-1.2V106l5.4,3.6V94.4
			C137.4,94.3,136.9,94.1,136.3,94z M132.6,168.2v25.3H67.4v-24.1c-1.1-0.4-2.2-1-3.1-1.7c-0.6-0.4-1.2-0.9-1.7-1.4
			c-0.2,0.1-0.4,0.1-0.6,0.1V199h76v-34.6C136.5,166.1,134.6,167.4,132.6,168.2z M62,96.3v25.5c1.6-1.3,3.4-2.2,5.4-2.8V95.9
			C65.7,96.2,63.8,96.4,62,96.3z M62,35.2v44.3c1.6,0.1,3.2-0.2,4.7-0.7l0.7-0.3V40.6h65.1v34.6l5.4,1.7V35.2H62z M62,121.9
			c1.6-1.3,3.4-2.2,5.4-2.8V95.9c-1.8,0.3-3.6,0.4-5.4,0.4V121.9z M62,96.3v25.5c1.6-1.3,3.4-2.2,5.4-2.8V95.9
			C65.7,96.2,63.8,96.4,62,96.3z M62,96.3v25.5c1.6-1.3,3.4-2.2,5.4-2.8V95.9C65.7,96.2,63.8,96.4,62,96.3z"/>
		<path d="M37.6,193.6h124.8v5.4H37.6V193.6z"/>
	</g>
</g>
</svg>
