<?xml version="1.0" encoding="utf-8"?>
<!-- Generator: Adobe Illustrator 22.1.0, SVG Export Plug-In . SVG Version: 6.00 Build 0)  -->
<svg version="1.1" id="Layer_1" xmlns="http://www.w3.org/2000/svg" xmlns:xlink="http://www.w3.org/1999/xlink" x="0px" y="0px"
	 viewBox="0 0 200 200" style="enable-background:new 0 0 200 200;" xml:space="preserve">
<style type="text/css">
	.st0{fill:#E6E6E6;}
	.st1{opacity:0.11;fill:#593025;}
	.st2{fill:#E54B1C;}
	.st3{fill:#3D3D3D;}
	.st4{fill:#424242;}
	.st5{fill:#2D2D2D;}
	.st6{fill:#E85A28;}
	.st7{fill:#4D4D4D;}
	.st8{fill:#DDDDDD;}
	.st9{fill:#696970;}
	.st10{opacity:0.11;fill:#FFFFFF;}
	.st11{fill:#F45B2C;}
	.st12{opacity:0.14;}
	.st13{opacity:0.59;}
	.st14{opacity:0.53;}
	.st15{fill:#EDEDED;}
	.st16{fill:#4F4F4F;}
	.st17{fill:#595959;}
	.st18{fill:#494949;}
	.st19{fill:#9ECCC9;}
	.st20{fill:#86B2B0;}
	.st21{fill:#DB2E05;}
	.st22{opacity:0.55;fill:#FFFFFF;}
	.st23{fill:#D1421C;}
	.st24{fill:#F45D2F;}
	.st25{opacity:0.42;fill:#FFFFFF;}
	.st26{opacity:0.24;fill:#FFFFFF;}
	.st27{fill:#DD4F24;}
	.st28{opacity:0.1;fill:#3D2405;}
	.st29{opacity:0.12;fill:#FFFFFF;}
	.st30{opacity:0.15;}
	.st31{fill:#495259;}
	.st32{fill:#959CAF;}
	.st33{opacity:0.11;}
	.st34{fill:#363C42;}
	.st35{opacity:9.000000e-02;}
	.st36{fill:#343A42;}
	.st37{fill:#616970;}
	.st38{opacity:7.000000e-02;fill:#FFFFFF;}
	.st39{fill:#424951;}
	.st40{fill:#E5A185;}
	.st41{opacity:0.64;fill:#D58A73;}
	.st42{opacity:0.4;fill:#D58A73;}
	.st43{fill:#6D7DB3;}
	.st44{fill:#B6BDCE;}
	.st45{fill:#D78C74;}
	.st46{fill:#381911;}
	.st47{opacity:0.38;}
	.st48{fill:#E5A084;}
	.st49{fill:#E59F83;}
	.st50{fill:#E49E83;}
	.st51{fill:#E49D82;}
	.st52{fill:#E49C81;}
	.st53{fill:#E49B80;}
	.st54{fill:#E49A80;}
	.st55{fill:#E3997F;}
	.st56{fill:#E3987E;}
	.st57{fill:#E3977D;}
	.st58{fill:#E3967C;}
	.st59{fill:#E2957C;}
	.st60{fill:#E2947B;}
	.st61{fill:#E2937A;}
	.st62{fill:#E29279;}
	.st63{fill:#E29179;}
	.st64{fill:#E19078;}
	.st65{fill:#E18F77;}
	.st66{fill:#E18E76;}
	.st67{fill:#E18D75;}
	.st68{fill:#E18C75;}
	.st69{fill:#E08B74;}
	.st70{fill:#E08A73;}
	.st71{fill:#E08972;}
	.st72{fill:#E08872;}
	.st73{fill:#DF8771;}
	.st74{fill:#DF8670;}
	.st75{fill:#DF856F;}
	.st76{fill:#DF846F;}
	.st77{fill:#DF836E;}
	.st78{fill:#DE826D;}
	.st79{fill:#DE816C;}
	.st80{fill:#DE806B;}
	.st81{fill:#DE7F6B;}
	.st82{fill:#DE7E6A;}
	.st83{fill:#DD7D69;}
	.st84{fill:#DD7C68;}
	.st85{fill:#DD7B68;}
	.st86{fill:#DD7A67;}
	.st87{fill:#DD7A66;}
	.st88{fill:#DC7965;}
	.st89{fill:#DC7864;}
	.st90{fill:#DC7764;}
	.st91{fill:#DC7663;}
	.st92{fill:#DB7562;}
	.st93{fill:#DB7461;}
	.st94{fill:#DB7361;}
	.st95{fill:#DB7260;}
	.st96{fill:#DB715F;}
	.st97{fill:#DA705E;}
	.st98{fill:#DA6F5D;}
	.st99{fill:#DA6E5D;}
	.st100{fill:#DA6D5C;}
	.st101{fill:#DA6C5B;}
	.st102{fill:#D96B5A;}
	.st103{fill:#D96A5A;}
	.st104{fill:#D96959;}
	.st105{fill:#D96858;}
	.st106{fill:#D86757;}
	.st107{fill:#D86657;}
	.st108{fill:#D86556;}
	.st109{fill:#D86455;}
	.st110{fill:#D86354;}
	.st111{fill:#D76253;}
	.st112{fill:#D76153;}
	.st113{fill:#D76052;}
	.st114{fill:#D75F51;}
	.st115{fill:#D75E50;}
	.st116{fill:#D65D50;}
	.st117{fill:#D65C4F;}
	.st118{fill:#D65B4E;}
	.st119{fill:#D65A4D;}
	.st120{fill:#D5594C;}
	.st121{fill:#D5584C;}
	.st122{fill:#D5574B;}
	.st123{fill:#D5564A;}
	.st124{fill:#D55549;}
	.st125{fill:#D45449;}
	.st126{fill:#D45348;}
	.st127{fill:#D45247;}
	.st128{opacity:0.52;fill:#D78C74;}
	.st129{fill:#FFFFFF;}
	.st130{fill:url(#XMLID_11_);}
	.st131{opacity:0.6;fill:#FFFFFF;}
	.st132{fill:url(#XMLID_12_);}
	.st133{fill:#422E26;}
	.st134{fill:#6C332E;}
	.st135{opacity:0.35;fill:#C3BBA5;}
	.st136{opacity:0.2;fill:#FFFFFF;}
	.st137{fill:#4F372D;}
	.st138{opacity:0.11;fill:#E5912F;}
	.st139{opacity:0.16;}
	.st140{fill:#3D4041;}
	.st141{fill:#DFE5EA;}
	.st142{fill:#7588BC;}
	.st143{opacity:8.000000e-02;fill:#002A3D;}
	.st144{fill:#B0B5C1;}
	.st145{opacity:0.45;}
	.st146{fill:#D58A73;}
	.st147{opacity:0.65;fill:#D78C74;}
	.st148{fill:#70797F;}
	.st149{fill:#80898E;}
	.st150{opacity:0.3;}
	.st151{opacity:0.56;}
	.st152{fill:#BBDEFB;}
	.st153{fill:#9DC89E;}
	.st154{fill:#599E85;}
	.st155{fill:#70617F;}
	.st156{fill:#7BCEEF;}
	.st157{fill:#374C82;}
	.st158{fill:#4EAFE5;}
	.st159{fill:#95CEF4;}
	.st160{fill:#349FCE;}
	.st161{fill:#62B9E8;}
	.st162{fill:#DEF2FF;}
	.st163{fill:#68BBEA;}
	.st164{opacity:0.31;}
	.st165{fill:#EA876C;}
	.st166{fill:#FB9D7E;}
	.st167{fill:#F8CD9E;}
	.st168{opacity:0.2;}
	.st169{opacity:0.5;}
	.st170{opacity:0.7;}
	.st171{fill:#2E2F4D;}
	.st172{fill:#F6A49D;}
	.st173{fill:#D47C74;}
	.st174{fill:#E96362;}
	.st175{fill:#4F1D30;}
	.st176{fill:#F48FB1;}
	.st177{fill:#E06594;}
	.st178{fill:#7986CB;}
	.st179{fill:#5F6FB2;}
	.st180{fill:#FFEFE7;}
	.st181{fill:#7CB7E3;}
	.st182{fill:#6AA8CE;}
	.st183{fill:#E6F5FF;}
	.st184{fill:#0A1334;}
	.st185{stroke:#000000;stroke-width:2;stroke-linecap:round;stroke-miterlimit:10;}
	.st186{stroke:#FFFFFF;stroke-width:2;stroke-miterlimit:10;}
	.st187{clip-path:url(#SVGID_2_);}
	.st188{fill:none;stroke:#000000;stroke-width:4;stroke-linecap:round;stroke-linejoin:round;stroke-miterlimit:10;}
</style>
<g id="outline_create">
	<path d="M199.5,196.7v-6.6h-6.6v-6.6c0-0.7-0.2-1.3-0.6-1.8c-8.9-13.4-23.9-21.4-39.9-21.4h-44.1L96,144.9
		c-0.6-0.8-1.6-1.2-2.6-1.2H83.1c-6.7,0-13.3,0.6-19.9,1.9l-0.2-0.3l-0.9,0.6c-6.1,1.3-12.2,3.1-18,5.5l-19.3,7.9l-5-7.5
		c-0.6-0.9-1.7-1.5-2.8-1.5H3.8v6.6h11.5l3.3,5l-12.7,5.2c-1.4,0.6-2.2,2-2,3.5l2.3,16.1H0.5v6.6h7.1c1.2,2,3.4,3.3,5.7,3.3h28.2
		c5,4.4,12.5,4.4,17.5,0h74.2c1.6,0,2.9-1.1,3.3-2.7c0.9-4.4,3.5-8.3,7.2-10.9c-1.4,4.9,0.2,10.2,4,13.6c5.5,4.8,13.9,4.3,18.7-1.2
		v1.2H199.5z M149.8,186.7c0-3.7,3-6.6,6.6-6.6c3.7,0,6.6,3,6.6,6.6c0,3.7-3,6.6-6.6,6.6C152.7,193.4,149.8,190.4,149.8,186.7z
		 M43.6,186.7c0-3.7,3-6.6,6.6-6.6s6.6,3,6.6,6.6c0,3.7-3,6.6-6.6,6.6C46.6,193.4,43.6,190.4,43.6,186.7z M99.7,160.2H72l-5.1-8.6
		c5.4-0.9,10.8-1.4,16.2-1.4h8.7L99.7,160.2z M186.2,190.1h-17c0.3-1.1,0.4-2.2,0.4-3.3c0-7.3-5.9-13.3-13.3-13.3h-3
		c-10.4,0-19.6,6.7-22.8,16.6H63.1c0.6-2.2,0.6-4.5,0-6.6c-1.8-7.1-9.1-11.4-16.2-9.5c-7.1,1.8-11.4,9.1-9.5,16.2H13.3l-2.5-17.8
		l35.9-14.8c4.3-1.8,8.8-3.3,13.4-4.4l4.3,7.1h-7.4v6.6h95.5c13.5,0,26.1,6.6,33.9,17.6V190.1z"/>
	<path d="M122.6,185.2l-5.5-3.7l6.6-9.9l5.5,3.7L122.6,185.2z"/>
	<path d="M109.3,185.2l-5.5-3.7l6.6-9.9l5.5,3.7L109.3,185.2z"/>
	<path d="M23.1,188.7l-5.3-4l10-13.3l5.3,4L23.1,188.7z"/>
	<path d="M182.3,153.6h6.1v-103c0-0.5-0.1-0.9-0.3-1.4c-0.7-1.5-2.6-2.1-4.1-1.4l-17.5,8.8H155c-1.7,0-3,1.4-3,3l0,87.9l6.1,0
		l0-84.9h9.1c0.5,0,0.9-0.1,1.4-0.3l13.8-6.9V153.6z"/>
	<path d="M142.9,138.4h6.1V53.6c0-1.7-1.4-3-3-3h-3l0-9.1c0,0,0,0,0,0c0-1.7-1.4-3-3-3h-3.1V17.2h-6.1v21.2h-3c-1.7,0-3,1.3-3,3
		l0,9.1h-3c-1.7,0-3,1.4-3,3v8.4l-3.3-6.5c-0.5-1-1.6-1.7-2.7-1.7h0c-1.1,0-2.2,0.6-2.7,1.7l-9.2,18c-0.2,0.4-0.3,0.9-0.3,1.4v9.1
		h-6l0-9.1c0,0,0,0,0,0c0-1.7-1.4-3-3-3h-0.1v-11c0-1.9-1.2-3.5-3-4v-6.2c0-3.8-2.4-7.3-6.1-8.6V29.7h-6.1V42
		c-3.6,1.3-6.1,4.7-6.1,8.6v6.2c-1.8,0.5-3,2.1-3,4v11c-1.7,0-3,1.4-3,3l0,3H45.9c0,0,0,0,0,0c-1.7,0-3,1.4-3,3.1L43,99h-6.2V65.7
		L37,53.6c0,0,0,0,0,0c0-1.7-1.4-3-3-3H21.7c-1.7,0-3,1.4-3,3v9.1h-3c-1.7,0-3,1.4-3,3v9.1h-3c-1.7,0-3,1.4-3,3v63.6h6.1V80.8h18.2
		V99c-1.7,0-3,1.4-3,3v36.4h6.1v-33.3h15.2v6.1h-6.1v6.1h6.1v6.1h-6.1v6.1h6.1v6.1H55V102c0-1.7-1.4-3-3-3h-2.9L49,83.9h15.1
		l-0.1,51.5l6.1,0l0.1-57.6h18.3l-0.1,45.5l6.1,0l0.1-33.3h6v45.5h6.1V77.8h12.1v69.7h6.1V56.6h3c0,0,0,0,0.1,0v0h15.2L142.9,138.4z
		 M18.6,74.8v-6.1h12.1v6.1H18.6z M30.9,56.6l-0.1,6.1h-6.1v-6.1H30.9z M79.2,47.5c1.7,0,3,1.3,3,3v6.1h-6.1v-6.1
		C76.2,48.9,77.6,47.5,79.2,47.5C79.2,47.5,79.2,47.5,79.2,47.5z M85.3,71.7H73.2v-9.1h12.1V71.7z M116.8,71.7h-8.3l4.2-8.3
		L116.8,71.7z M136.9,44.5l0,6.1h-6.1l0-6.1H136.9z"/>
	<path d="M176.2,74.8h-12.1v-6.1h12.1V74.8z"/>
	<path d="M176.2,86.9h-12.1v-6.1h12.1V86.9z"/>
	<path d="M176.2,99h-12.1V93h12.1V99z"/>
	<path d="M176.2,111.1h-12.1v-6.1h12.1V111.1z"/>
	<path d="M176.2,123.3h-12.1v-6.1h12.1V123.3z"/>
	<path d="M176.2,135.4h-12.1v-6.1h12.1V135.4z"/>
	<path d="M176.2,147.5h-12.1v-6.1h12.1V147.5z"/>
	<path d="M136.8,68.7h-6.1v-6.1h6.1V68.7z"/>
	<path d="M136.8,80.8h-6.1v-6.1h6.1V80.8z"/>
	<path d="M136.8,93h-6.1v-6.1h6.1V93z"/>
	<path d="M136.8,105.1h-6.1V99h6.1V105.1z"/>
	<path d="M136.8,117.2h-6.1v-6.1h6.1V117.2z"/>
	<path d="M136.8,129.3h-6.1v-6.1h6.1V129.3z"/>
	<path d="M82.3,89.9h-6.1v-6.1h6.1V89.9z"/>
	<path d="M82.3,102h-6.1V96h6.1V102z"/>
	<path d="M82.3,114.2h-6.1v-6.1h6.1V114.2z"/>
	<path d="M82.3,126.3h-6.1v-6.1h6.1V126.3z"/>
	<path d="M24.7,93h-6.1v-6.1h6.1V93z"/>
	<path d="M24.7,105.1h-6.1V99h6.1V105.1z"/>
	<path d="M24.7,117.2h-6.1v-6.1h6.1V117.2z"/>
	<path d="M24.7,129.3h-6.1v-6.1h6.1V129.3z"/>
	<path d="M36.8,47.5h-6.1v-6.1h6.1V47.5z"/>
</g>
</svg>
