<?xml version="1.0" encoding="utf-8"?>
<!-- Generator: Adobe Illustrator 22.1.0, SVG Export Plug-In . SVG Version: 6.00 Build 0)  -->
<svg version="1.1" id="Layer_1" xmlns="http://www.w3.org/2000/svg" xmlns:xlink="http://www.w3.org/1999/xlink" x="0px" y="0px"
	 viewBox="0 0 200 200" style="enable-background:new 0 0 200 200;" xml:space="preserve">
<style type="text/css">
	.st0{fill:#E6E6E6;}
	.st1{opacity:0.11;fill:#593025;}
	.st2{fill:#E54B1C;}
	.st3{fill:#3D3D3D;}
	.st4{fill:#424242;}
	.st5{fill:#2D2D2D;}
	.st6{fill:#E85A28;}
	.st7{fill:#4D4D4D;}
	.st8{fill:#DDDDDD;}
	.st9{fill:#696970;}
	.st10{opacity:0.11;fill:#FFFFFF;}
	.st11{fill:#F45B2C;}
	.st12{opacity:0.14;}
	.st13{opacity:0.59;}
	.st14{opacity:0.53;}
	.st15{fill:#EDEDED;}
	.st16{fill:#4F4F4F;}
	.st17{fill:#595959;}
	.st18{fill:#494949;}
	.st19{fill:#9ECCC9;}
	.st20{fill:#86B2B0;}
	.st21{fill:#DB2E05;}
	.st22{opacity:0.55;fill:#FFFFFF;}
	.st23{fill:#D1421C;}
	.st24{fill:#F45D2F;}
	.st25{opacity:0.42;fill:#FFFFFF;}
	.st26{opacity:0.24;fill:#FFFFFF;}
	.st27{fill:#DD4F24;}
	.st28{opacity:0.1;fill:#3D2405;}
	.st29{opacity:0.12;fill:#FFFFFF;}
	.st30{opacity:0.15;}
	.st31{fill:#495259;}
	.st32{fill:#959CAF;}
	.st33{opacity:0.11;}
	.st34{fill:#363C42;}
	.st35{opacity:9.000000e-02;}
	.st36{fill:#343A42;}
	.st37{fill:#616970;}
	.st38{opacity:7.000000e-02;fill:#FFFFFF;}
	.st39{fill:#424951;}
	.st40{fill:#E5A185;}
	.st41{opacity:0.64;fill:#D58A73;}
	.st42{opacity:0.4;fill:#D58A73;}
	.st43{fill:#6D7DB3;}
	.st44{fill:#B6BDCE;}
	.st45{fill:#D78C74;}
	.st46{fill:#381911;}
	.st47{opacity:0.38;}
	.st48{fill:#E5A084;}
	.st49{fill:#E59F83;}
	.st50{fill:#E49E83;}
	.st51{fill:#E49D82;}
	.st52{fill:#E49C81;}
	.st53{fill:#E49B80;}
	.st54{fill:#E49A80;}
	.st55{fill:#E3997F;}
	.st56{fill:#E3987E;}
	.st57{fill:#E3977D;}
	.st58{fill:#E3967C;}
	.st59{fill:#E2957C;}
	.st60{fill:#E2947B;}
	.st61{fill:#E2937A;}
	.st62{fill:#E29279;}
	.st63{fill:#E29179;}
	.st64{fill:#E19078;}
	.st65{fill:#E18F77;}
	.st66{fill:#E18E76;}
	.st67{fill:#E18D75;}
	.st68{fill:#E18C75;}
	.st69{fill:#E08B74;}
	.st70{fill:#E08A73;}
	.st71{fill:#E08972;}
	.st72{fill:#E08872;}
	.st73{fill:#DF8771;}
	.st74{fill:#DF8670;}
	.st75{fill:#DF856F;}
	.st76{fill:#DF846F;}
	.st77{fill:#DF836E;}
	.st78{fill:#DE826D;}
	.st79{fill:#DE816C;}
	.st80{fill:#DE806B;}
	.st81{fill:#DE7F6B;}
	.st82{fill:#DE7E6A;}
	.st83{fill:#DD7D69;}
	.st84{fill:#DD7C68;}
	.st85{fill:#DD7B68;}
	.st86{fill:#DD7A67;}
	.st87{fill:#DD7A66;}
	.st88{fill:#DC7965;}
	.st89{fill:#DC7864;}
	.st90{fill:#DC7764;}
	.st91{fill:#DC7663;}
	.st92{fill:#DB7562;}
	.st93{fill:#DB7461;}
	.st94{fill:#DB7361;}
	.st95{fill:#DB7260;}
	.st96{fill:#DB715F;}
	.st97{fill:#DA705E;}
	.st98{fill:#DA6F5D;}
	.st99{fill:#DA6E5D;}
	.st100{fill:#DA6D5C;}
	.st101{fill:#DA6C5B;}
	.st102{fill:#D96B5A;}
	.st103{fill:#D96A5A;}
	.st104{fill:#D96959;}
	.st105{fill:#D96858;}
	.st106{fill:#D86757;}
	.st107{fill:#D86657;}
	.st108{fill:#D86556;}
	.st109{fill:#D86455;}
	.st110{fill:#D86354;}
	.st111{fill:#D76253;}
	.st112{fill:#D76153;}
	.st113{fill:#D76052;}
	.st114{fill:#D75F51;}
	.st115{fill:#D75E50;}
	.st116{fill:#D65D50;}
	.st117{fill:#D65C4F;}
	.st118{fill:#D65B4E;}
	.st119{fill:#D65A4D;}
	.st120{fill:#D5594C;}
	.st121{fill:#D5584C;}
	.st122{fill:#D5574B;}
	.st123{fill:#D5564A;}
	.st124{fill:#D55549;}
	.st125{fill:#D45449;}
	.st126{fill:#D45348;}
	.st127{fill:#D45247;}
	.st128{opacity:0.52;fill:#D78C74;}
	.st129{fill:#FFFFFF;}
	.st130{fill:url(#XMLID_11_);}
	.st131{opacity:0.6;fill:#FFFFFF;}
	.st132{fill:url(#XMLID_12_);}
	.st133{fill:#422E26;}
	.st134{fill:#6C332E;}
	.st135{opacity:0.35;fill:#C3BBA5;}
	.st136{opacity:0.2;fill:#FFFFFF;}
	.st137{fill:#4F372D;}
	.st138{opacity:0.11;fill:#E5912F;}
	.st139{opacity:0.16;}
	.st140{fill:#3D4041;}
	.st141{fill:#DFE5EA;}
	.st142{fill:#7588BC;}
	.st143{opacity:8.000000e-02;fill:#002A3D;}
	.st144{fill:#B0B5C1;}
	.st145{opacity:0.45;}
	.st146{fill:#D58A73;}
	.st147{opacity:0.65;fill:#D78C74;}
	.st148{fill:#70797F;}
	.st149{fill:#80898E;}
	.st150{opacity:0.3;}
	.st151{opacity:0.56;}
	.st152{fill:#BBDEFB;}
	.st153{fill:#9DC89E;}
	.st154{fill:#599E85;}
	.st155{fill:#70617F;}
	.st156{fill:#7BCEEF;}
	.st157{fill:#374C82;}
	.st158{fill:#4EAFE5;}
	.st159{fill:#95CEF4;}
	.st160{fill:#349FCE;}
	.st161{fill:#62B9E8;}
	.st162{fill:#DEF2FF;}
	.st163{fill:#68BBEA;}
	.st164{opacity:0.31;}
	.st165{fill:#EA876C;}
	.st166{fill:#FB9D7E;}
	.st167{fill:#F8CD9E;}
	.st168{opacity:0.2;}
	.st169{opacity:0.5;}
	.st170{opacity:0.7;}
	.st171{fill:#2E2F4D;}
	.st172{fill:#F6A49D;}
	.st173{fill:#D47C74;}
	.st174{fill:#E96362;}
	.st175{fill:#4F1D30;}
	.st176{fill:#F48FB1;}
	.st177{fill:#E06594;}
	.st178{fill:#7986CB;}
	.st179{fill:#5F6FB2;}
	.st180{fill:#FFEFE7;}
	.st181{fill:#7CB7E3;}
	.st182{fill:#6AA8CE;}
	.st183{fill:#E6F5FF;}
	.st184{fill:#0A1334;}
	.st185{stroke:#000000;stroke-width:2;stroke-linecap:round;stroke-miterlimit:10;}
	.st186{stroke:#FFFFFF;stroke-width:2;stroke-miterlimit:10;}
	.st187{clip-path:url(#SVGID_2_);}
	.st188{fill:none;stroke:#000000;stroke-width:4;stroke-linecap:round;stroke-linejoin:round;stroke-miterlimit:10;}
</style>
<g id="Layer_4">
	<path d="M195.5,199H84.1c-2.2,0-4-1.8-4-4V59.7c0-2.2,1.8-4,4-4h35.8c2.2,0,4,1.8,4,4v11.9h31.8V59.7c0-2.2,1.8-4,4-4h35.8
		c2.2,0,4,1.8,4,4V195C199.5,197.2,197.7,199,195.5,199z M88.1,191h103.5V63.7h-27.9v11.9c0,2.2-1.8,4-4,4h-39.8c-2.2,0-4-1.8-4-4
		V63.7H88.1V191z"/>
	<path d="M159.7,79.6h-39.8c-2.2,0-4-1.8-4-4V59.7c0-1.4,0.7-2.6,1.8-3.3l2.4-6.1c0.6-1.5,2.1-2.5,3.7-2.5h31.8c1.6,0,3.1,1,3.7,2.5
		l2.4,6.1c1.1,0.7,1.8,2,1.8,3.3v15.9C163.7,77.8,161.9,79.6,159.7,79.6z M123.9,71.6h31.8v-9.6c-0.2-0.3-0.4-0.6-0.5-0.9l-2.2-5.5
		h-26.4l-2.2,5.5c-0.1,0.3-0.3,0.6-0.5,0.9V71.6z"/>
	<path d="M183.6,187.1H96c-2.2,0-4-1.8-4-4V71.6c0-2.2,1.8-4,4-4h23.9c2.2,0,4,1.8,4,4s-1.8,4-4,4H100v103.5h79.6V75.6h-19.9
		c-2.2,0-4-1.8-4-4s1.8-4,4-4h23.9c2.2,0,4,1.8,4,4v111.4C187.6,185.3,185.8,187.1,183.6,187.1z"/>
	<path d="M127.9,115.4H108c-2.2,0-4-1.8-4-4V95.5c0-2.2,1.8-4,4-4s4,1.8,4,4v11.9h15.9c2.2,0,4,1.8,4,4
		C131.8,113.6,130.1,115.4,127.9,115.4z"/>
	<path d="M127.9,143.3H108c-2.2,0-4-1.8-4-4v-15.9c0-2.2,1.8-4,4-4s4,1.8,4,4v11.9h15.9c2.2,0,4,1.8,4,4S130.1,143.3,127.9,143.3z"
		/>
	<path d="M127.9,171.1H108c-2.2,0-4-1.8-4-4v-15.9c0-2.2,1.8-4,4-4s4,1.8,4,4v11.9h15.9c2.2,0,4,1.8,4,4S130.1,171.1,127.9,171.1z"
		/>
	<path d="M171.6,107.5h-31.8c-2.2,0-4-1.8-4-4c0-2.2,1.8-4,4-4h31.8c2.2,0,4,1.8,4,4C175.6,105.7,173.8,107.5,171.6,107.5z"/>
	<path d="M171.6,135.3h-31.8c-2.2,0-4-1.8-4-4s1.8-4,4-4h31.8c2.2,0,4,1.8,4,4S173.8,135.3,171.6,135.3z"/>
	<path d="M171.6,163.2h-31.8c-2.2,0-4-1.8-4-4s1.8-4,4-4h31.8c2.2,0,4,1.8,4,4S173.8,163.2,171.6,163.2z"/>
	<path d="M84.1,115.4H31.7c-1.2,0-2.4-0.6-3.1-1.5c-0.8-1-1-2.2-0.8-3.4l9.8-39.8c0.4-1.8,2.1-3.1,4-3h42.5c2.2,0,4,1.8,4,4
		s-1.8,4-4,4H44.5l-7.8,31.8h47.3c2.2,0,4,1.8,4,4C88.1,113.6,86.3,115.4,84.1,115.4z"/>
	<path d="M32.3,111.4H13.8c-7.3,0-13.2-5.9-13.3-13.3v-1.4c0-7.3,5.9-13.2,13.3-13.3c12.5,0,22.6,10.1,22.6,22.6l0,0v1.3
		C36.3,109.7,34.5,111.4,32.3,111.4z M13.8,91.5c-2.9,0-5.3,2.4-5.3,5.3v1.4c0,2.9,2.4,5.3,5.3,5.3h14.4
		C26.8,96.6,20.8,91.5,13.8,91.5z"/>
	<path d="M80.1,175.1H16.4c-2.2,0-4-1.8-4-4v-27.5c0-0.5,0.1-1.1,0.3-1.6l13.8-32.1c0.6-1.5,2.1-2.4,3.7-2.4h49.9c2.2,0,4,1.8,4,4
		c0,2.2-1.8,4-4,4H32.8l-12.4,29v22.8h59.7c2.2,0,4,1.8,4,4S82.3,175.1,80.1,175.1z"/>
	<path d="M34.3,199c-9.9,0-17.9-8-17.9-17.9v-9.9c0-2.2,1.8-4,4-4h27.9c2.2,0,4,1.8,4,4v9.9C52.2,191,44.2,199,34.3,199z
		 M24.4,175.1v6c0,5.5,4.5,9.9,10,9.9s9.9-4.5,9.9-9.9v-6H24.4z"/>
	<path d="M42.3,163.2c-8.4,0-13.9-10.8-13.9-17.9c0-9.9,9.8-9.9,13.9-9.9s8.8,4.6,12.4,8.7l1.9,2.1c3.1,3.1,3.1,8.1,0,11.2
		C52.7,160.9,47.6,163,42.3,163.2z M42.3,143.3c-6,0-6,0.7-6,2c0,4,3.5,9.9,6,9.9c3.2-0.2,6.2-1.5,8.6-3.6c-0.6-0.6-1.4-1.4-2.1-2.3
		c-1.5-1.7-5.1-5.7-6.6-6H42.3z"/>
	<path d="M84.1,147.3H68.2c-2.2,0-4-1.8-4-4s1.8-4,4-4h15.9c2.2,0,4,1.8,4,4S86.3,147.3,84.1,147.3z"/>
	<path d="M84.1,159.2H68.2c-2.2,0-4-1.8-4-4s1.8-4,4-4h15.9c2.2,0,4,1.8,4,4S86.3,159.2,84.1,159.2z"/>
	<path d="M123.9,103.5c-1.1,0-2.1-0.4-2.8-1.2l-8-8c-1.6-1.6-1.6-4.1,0-5.7c1.6-1.6,4.1-1.6,5.7,0l5.5,5.5l13.2-9.9
		c1.8-1.3,4.3-1,5.6,0.8c1.3,1.8,1,4.3-0.8,5.6l-15.9,11.9C125.6,103.2,124.7,103.5,123.9,103.5z"/>
</g>
</svg>
