<?xml version="1.0" encoding="utf-8"?>
<!-- Generator: Adobe Illustrator 22.1.0, SVG Export Plug-In . SVG Version: 6.00 Build 0)  -->
<svg version="1.1" id="Layer_1" xmlns="http://www.w3.org/2000/svg" xmlns:xlink="http://www.w3.org/1999/xlink" x="0px" y="0px"
	 viewBox="0 0 200 200" style="enable-background:new 0 0 200 200;" xml:space="preserve">
<g>
	<path d="M182.3,177.3l-63.9-92.8L111.2,74L65.5,7.7l-3.8-5.5H5.6l13.7,19.9L80,110.3l7.2,10.5l48.8,70.9l3.8,5.5h56.1L182.3,177.3z
		 M146.5,184.5l-50.7-73.7l-7.2-10.5L29.7,14.9h25.3L102.6,84l7.2,10.5l61.9,90H146.5z"/>
	<polygon points="88.6,100.3 95.8,110.8 87.2,120.8 21.6,197.2 5.4,197.2 80,110.3 	"/>
	<polygon points="189.2,2.2 118.4,84.5 109.8,94.5 102.6,84 111.2,74 159.1,18.2 173,2.2 	"/>
</g>
</svg>
